/vscmnt/brussel_pixiu_data/_data_brussel/112/vsc11236/PredSimResults/SUBJ10mtu3D/weighted-LRposFixed/expIG/worker_01.mot
version=1
nRows=8
nColumns=50
inDegrees=yes
endheader
                time	         pelvis_tilt	         pelvis_list	     pelvis_rotation	           pelvis_tx	           pelvis_ty	           pelvis_tz	       hip_flexion_r	     hip_adduction_r	      hip_rotation_r	        knee_angle_r	       ankle_angle_r	         mtp_angle_r	       hip_flexion_l	     hip_adduction_l	      hip_rotation_l	        knee_angle_l	       ankle_angle_l	         mtp_angle_l	    lumbar_extension	      lumbar_bending	     lumbar_rotation	 ercspn_r/activation	 intobl_r/activation	 extobl_r/activation	    abd_r/activation	    add_r/activation	hamstrings_r/activation	bifemsh_r/activation	glut_max_r/activation	iliopsoas_r/activation	rect_fem_r/activation	  vasti_r/activation	gastroc_r/activation	 soleus_r/activation	tib_ant_r/activation	 ercspn_l/activation	 intobl_l/activation	 extobl_l/activation	    abd_l/activation	    add_l/activation	hamstrings_l/activation	bifemsh_l/activation	glut_max_l/activation	iliopsoas_l/activation	rect_fem_l/activation	  vasti_l/activation	gastroc_l/activation	 soleus_l/activation	tib_ant_l/activation	
          3.00000003	         -8.07796866	          4.46260661	        -12.70748081	          3.48000003	          0.81647551	         -0.00093971	         -1.46702149	         -4.59278061	         -0.15555283	        -22.49949858	         16.55984393	         22.73247728	         34.13137155	         -0.50186578	          0.70895376	         -6.85292314	          7.21337529	          0.50840151	         -7.80641732	         -2.54049430	         -1.54394879	          0.03131104	          0.00999999	          0.00999999	          0.02636874	          0.00999999	          0.00999999	          0.01000000	          0.00999999	          0.10356971	          0.08592270	          0.04213988	          0.23813585	          0.13177763	          0.01168801	          0.13609868	          0.04414959	          0.00999999	          0.07583314	          0.11352110	          0.02340581	          0.28306165	          0.02121597	          0.06441891	          0.02867214	          0.00999999	          0.02918804	          0.01333332	          0.26693720	
          3.02000003	         -8.25130769	          3.93395207	        -12.22331007	          3.50941346	          0.81458325	         -0.00245660	         -2.69625578	         -4.52291207	         -1.22519938	        -23.75972497	         14.01649921	         25.39213442	         32.97598629	         -0.40352048	          0.09981827	         -8.11702156	          6.71856032	          0.43001375	         -7.08896708	         -2.66019916	         -0.89770006	          0.07196318	          0.00999999	          0.00999999	          0.01977655	          0.04125092	          0.02842389	          0.00999999	          0.00999999	          0.21750576	          0.06444202	          0.03160491	          0.17860189	          0.09883322	          0.00999999	          0.10207401	          0.03311219	          0.00999999	          0.08952249	          0.10688153	          0.06540194	          0.21229624	          0.10541521	          0.04831418	          0.02150410	          0.00999999	          0.02189103	          0.00999999	          0.33006686	
          3.04000003	         -8.40757974	          3.44130263	        -11.66332314	          3.53784237	          0.81376791	         -0.00410319	         -2.78262589	         -4.48206225	         -2.19745251	        -26.87709016	         11.11002291	         27.43810393	         32.08288963	         -0.22235347	         -0.15228838	         -9.66148602	          6.08791168	          0.35005079	         -6.51154433	         -2.88875034	         -0.35537084	          0.13231904	          0.00999999	          0.00999999	          0.01483241	          0.11422425	          0.02131792	          0.00999999	          0.00999999	          0.28984536	          0.04833152	          0.02370368	          0.13395142	          0.07412492	          0.00999999	          0.11246421	          0.02483414	          0.00999999	          0.15486532	          0.18482696	          0.05811319	          0.15922218	          0.15489107	          0.03623563	          0.01612808	          0.03147152	          0.01641827	          0.00999999	          0.36777217	
          3.06000003	         -8.54261620	          2.95630930	        -10.99592441	          3.56482939	          0.81486855	         -0.00578080	         -1.60613571	         -4.46541188	         -3.06426734	        -31.85476574	          7.63890249	         28.01104455	         31.33081193	         -0.01177449	         -0.10244642	        -11.39197204	          6.01256484	          0.28974608	         -6.11845747	         -3.19225252	          0.07538958	          0.16515524	          0.00999999	          0.00999999	          0.01112431	          0.14657447	          0.01598844	          0.03749519	          0.00999999	          0.27301464	          0.03624864	          0.01777776	          0.10046356	          0.05559369	          0.00999999	          0.08964705	          0.01862561	          0.00999999	          0.14699667	          0.18468183	          0.05545060	          0.11941663	          0.15134283	          0.02717673	          0.01209606	          0.09331061	          0.01231370	          0.00999999	          0.35929284	
          3.08000003	         -8.65582555	          2.46235671	        -10.20065411	          3.59055378	          0.81788733	         -0.00742499	          0.59694775	         -4.45540231	         -3.69657580	        -38.20186066	          4.22491399	         25.43837076	         30.32437487	          0.22102258	          0.25750345	        -12.58781970	          6.25950938	          0.25231003	         -5.87232295	         -3.52086588	          0.39753085	          0.20063248	          0.05495533	          0.00999999	          0.00999999	          0.10993085	          0.01199133	          0.02812139	          0.00999999	          0.22185939	          0.02718648	          0.01333332	          0.07534767	          0.04169527	          0.16667702	          0.06723528	          0.01396921	          0.00999999	          0.14965459	          0.13851137	          0.05004609	          0.08956248	          0.13343135	          0.02038254	          0.00999999	          0.11889805	          0.00999999	          0.00999999	          0.33874898	
          3.10000003	         -8.74719027	          1.95665357	         -9.28837662	          3.61525777	          0.82190140	         -0.00895333	          3.22953703	         -4.27036682	         -3.96550970	        -44.76176292	          2.82005914	         20.03831644	         28.97030431	          0.44521642	          0.86976721	        -13.07330260	          6.54649103	          0.23306515	         -5.72392178	         -3.81686369	          0.60180578	          0.19940654	          0.07119950	          0.01000000	          0.00999999	          0.08244814	          0.00999999	          0.07002767	          0.00999999	          0.18027283	          0.08577514	          0.00999999	          0.05651075	          0.03237815	          0.22482951	          0.05042646	          0.01047690	          0.00999999	          0.14130080	          0.10388353	          0.05546605	          0.06717186	          0.11596518	          0.01528691	          0.00999999	          0.12503318	          0.00999999	          0.00999999	          0.32140210	
          3.12000003	         -8.82313996	          1.43966287	         -8.29256858	          3.63917762	          0.82645461	         -0.01030750	          5.85068097	         -3.77435381	         -4.05992030	        -49.99707670	          3.39349404	         15.57823894	         27.34132150	          0.61572930	          1.60322571	        -13.00273479	          6.89226968	          0.22286004	         -5.63788759	         -4.05001836	          0.70137816	          0.17399165	          0.07753830	          0.00999999	          0.00999999	          0.06755546	          0.00999999	          0.13682861	          0.00999999	          0.16322951	          0.13791499	          0.00999999	          0.04420951	          0.02428361	          0.21955491	          0.03781985	          0.00999999	          0.00999999	          0.12927610	          0.07791265	          0.05943684	          0.05037889	          0.08971117	          0.01146518	          0.00999999	          0.11352756	          0.00999999	          0.00999999	          0.30104419	
          3.14000003	         -8.88636904	          0.88521361	         -7.26376656	          3.66242638	          0.83131851	         -0.01156505	          8.43146987	         -3.06126088	         -4.16521473	        -53.61821284	          3.93603855	         12.10883657	         25.54334209	          0.67865092	          2.38493374	        -12.56818635	          7.23905051	          0.22290083	         -5.61746106	         -4.17171339	          0.73433615	          0.14803589	          0.08464274	          0.00999999	          0.00999999	          0.07935498	          0.00999999	          0.23539791	          0.00999999	          0.15216099	          0.17768004	          0.00999999	          0.04836459	          0.01821271	          0.21851511	          0.03233896	          0.00999999	          0.00999999	          0.10915617	          0.05843448	          0.06258057	          0.03778417	          0.07214911	          0.00999999	          0.00999999	          0.10785621	          0.00999999	          0.00999999	          0.28545824	
